REM DIRINDEX 1\2,1\3,1\4,1\5
REM DIRNAME "folder01","folder02","folder03","folder04","folder05"
TITLE ""
FILE "P1Q_t_1278-1287.mp3" MP3
  TRACK 01 AUDIO
    TITLE "0:"
    INDEX 01 00:00:00
  TRACK 02 AUDIO
    TITLE "3:cjc173_4802"
    INDEX 01 00:00:10
  TRACK 03 AUDIO
    TITLE "0:"
    INDEX 01 00:01:33
  TRACK 04 AUDIO
    TITLE "4:cjc173_4803"
    INDEX 01 00:01:55
  TRACK 05 AUDIO
    TITLE "0:"
    INDEX 01 00:03:09
  TRACK 06 AUDIO
    TITLE "5:cjc173_4804"
    INDEX 01 00:03:28
  TRACK 07 AUDIO
    TITLE "0:"
    INDEX 01 00:08:37
  TRACK 08 AUDIO
    TITLE "3:cjc173_4805"
    INDEX 01 00:09:07
  TRACK 09 AUDIO
    TITLE "0:"
    INDEX 01 00:10:19
  TRACK 10 AUDIO
    TITLE "4:cjc173_4806"
    INDEX 01 00:10:38
  TRACK 11 AUDIO
    TITLE "0:"
    INDEX 01 00:13:15
  TRACK 12 AUDIO
    TITLE "5:cjc173_4807"
    INDEX 01 00:13:34
  TRACK 13 AUDIO
    TITLE "0:"
    INDEX 01 00:17:58
  TRACK 14 AUDIO
    TITLE "3:cjc173_4808"
    INDEX 01 00:18:28
  TRACK 15 AUDIO
    TITLE "0:"
    INDEX 01 00:19:39
  TRACK 16 AUDIO
    TITLE "4:cjc173_4809"
    INDEX 01 00:19:59
  TRACK 17 AUDIO
    TITLE "0:"
    INDEX 01 00:23:17
  TRACK 18 AUDIO
    TITLE "5:cjc173_4810"
    INDEX 01 00:23:37
  TRACK 19 AUDIO
    TITLE "0:"
    INDEX 01 00:27:35
  TRACK 20 AUDIO
    TITLE "3:cjc173_4811"
    INDEX 01 00:28:05
  TRACK 21 AUDIO
    TITLE "0:"
    INDEX 01 00:29:39
  TRACK 22 AUDIO
    TITLE "4:cjc173_4812"
    INDEX 01 00:29:59
  TRACK 23 AUDIO
    TITLE "0:"
    INDEX 01 00:32:46
  TRACK 24 AUDIO
    TITLE "5:cjc173_4813"
    INDEX 01 00:32:65
  TRACK 25 AUDIO
    TITLE "0:"
    INDEX 01 00:37:60
  TRACK 26 AUDIO
    TITLE "3:cjc173_4814"
    INDEX 01 00:38:32
  TRACK 27 AUDIO
    TITLE "0:"
    INDEX 01 00:39:48
  TRACK 28 AUDIO
    TITLE "4:cjc173_4815"
    INDEX 01 00:39:69
  TRACK 29 AUDIO
    TITLE "0:"
    INDEX 01 00:42:46
  TRACK 30 AUDIO
    TITLE "5:cjc173_4816"
    INDEX 01 00:42:66
  TRACK 31 AUDIO
    TITLE "0:"
    INDEX 01 00:48:33
  TRACK 32 AUDIO
    TITLE "3:cjc173_4817"
    INDEX 01 00:49:05
  TRACK 33 AUDIO
    TITLE "0:"
    INDEX 01 00:50:51
  TRACK 34 AUDIO
    TITLE "4:cjc173_4818"
    INDEX 01 00:50:71
  TRACK 35 AUDIO
    TITLE "0:"
    INDEX 01 00:54:24
  TRACK 36 AUDIO
    TITLE "5:cjc173_4819"
    INDEX 01 00:54:43
  TRACK 37 AUDIO
    TITLE "0:"
    INDEX 01 00:58:63
  TRACK 38 AUDIO
    TITLE "3:cjc173_4820"
    INDEX 01 00:59:35
  TRACK 39 AUDIO
    TITLE "0:"
    INDEX 01 01:00:67
  TRACK 40 AUDIO
    TITLE "4:cjc173_4821"
    INDEX 01 01:01:12
  TRACK 41 AUDIO
    TITLE "0:"
    INDEX 01 01:04:04
  TRACK 42 AUDIO
    TITLE "5:cjc173_4822"
    INDEX 01 01:04:24
  TRACK 43 AUDIO
    TITLE "0:"
    INDEX 01 01:08:14
  TRACK 44 AUDIO
    TITLE "3:cjc173_4823"
    INDEX 01 01:08:61
  TRACK 45 AUDIO
    TITLE "0:"
    INDEX 01 01:10:01
  TRACK 46 AUDIO
    TITLE "4:cjc173_4824"
    INDEX 01 01:10:23
  TRACK 47 AUDIO
    TITLE "0:"
    INDEX 01 01:12:41
  TRACK 48 AUDIO
    TITLE "5:cjc173_4825"
    INDEX 01 01:12:59
  TRACK 49 AUDIO
    TITLE "0:"
    INDEX 01 01:16:33
  TRACK 50 AUDIO
    TITLE "3:cjc173_4826"
    INDEX 01 01:17:03
  TRACK 51 AUDIO
    TITLE "0:"
    INDEX 01 01:18:08
  TRACK 52 AUDIO
    TITLE "4:cjc173_4827"
    INDEX 01 01:18:30
  TRACK 53 AUDIO
    TITLE "0:"
    INDEX 01 01:21:17
  TRACK 54 AUDIO
    TITLE "5:cjc173_4828"
    INDEX 01 01:21:34
  TRACK 55 AUDIO
    TITLE "0:"
    INDEX 01 01:25:30
  TRACK 56 AUDIO
    TITLE "3:cjc173_4829"
    INDEX 01 01:26:02
  TRACK 57 AUDIO
    TITLE "0:"
    INDEX 01 01:27:29
  TRACK 58 AUDIO
    TITLE "4:cjc173_4830"
    INDEX 01 01:27:51
  TRACK 59 AUDIO
    TITLE "0:"
    INDEX 01 01:30:21
  TRACK 60 AUDIO
    TITLE "5:cjc173_4831"
    INDEX 01 01:30:41
  TRACK 61 AUDIO
    TITLE "0:"
    INDEX 01 01:34:60
